<!DOCTYPE svg PUBLIC "-//W3C//DTD SVG 1.1//EN" "http://www.w3.org/Graphics/SVG/1.1/DTD/svg11.dtd">
<!-- Uploaded to: SVG Repo, www.svgrepo.com, Transformed by: SVG Repo Mixer Tools -->
<svg fill="#000000" height="800px" width="800px" version="1.1" id="wedding" xmlns="http://www.w3.org/2000/svg" xmlns:xlink="http://www.w3.org/1999/xlink" viewBox="0 0 128 128" xml:space="preserve">
<g id="SVGRepo_bgCarrier" stroke-width="0"/>
<g id="SVGRepo_tracerCarrier" stroke-linecap="round" stroke-linejoin="round"/>
<g id="SVGRepo_iconCarrier"> <polygon points="27.4,27.4 32.5,30.3 27.4,33.2 "/> <polygon points="37.5,27.4 32.5,30.3 37.5,33.2 "/> <circle cx="32.5" cy="13.5" r="10.1"/> <circle cx="89.3" cy="18.5" r="10.1"/> <path d="M120.2,65.1c0,0,0-0.1-0.1-0.1l-9.2-25.3c-0.4-1.1-1-2.2-1.7-3.1c2.2-4.4,2.3-9.9-0.4-14.5l-6.3-10.9 c-2.7-4.7-7.7-7.6-13.1-7.6S79,6.5,76.3,11.1L70,22.1c-2.7,4.6-2.6,10-0.4,14.5c-0.7,0.9-1.3,2-1.7,3.1l-5,13.9L56,34.6 c-1.7-4.8-6.1-8.3-10.8-8.3h-5.1c0,0-7.8,21.9-7.6,22.1c0.2,0.2-7.6-22.1-7.6-22.1h-5.1c-7,0-12.6,5.7-12.6,12.6v30.9 c0,2.4,2,4.4,4.4,4.4s4.4-2,4.4-4.4V41.4c0-0.7,0.6-1.3,1.3-1.3c0.7,0,1.3,0.6,1.3,1.3V118c0,3.8,2.8,6.8,6.3,6.8s6.3-3.1,6.3-6.8 V74.3c0-0.7,0.6-1.3,1.3-1.3s1.3,0.6,1.3,1.3V118c0,3.8,2.8,6.8,6.3,6.8s6.3-3.1,6.3-6.8V41.4c0-0.7,0.6-1.3,1.3-1.3 c0.5,0,1,0.3,1.2,0.8l9.8,26.9c0.8,2.3,3.4,3.5,5.7,2.7c1.2-0.4,2.1-1.4,2.6-2.5l0,0l8.4-23c0.2-0.5,0.7-0.9,1.3-0.8l0,0l0.4,0 c0.4,5.8,1,11.4,1.9,16.9c-9.4,14.6-15,36.8-15.4,61.1l0,2.6h51.8l0-2.6c-0.4-24.4-6-46.6-15.4-61.1c0.9-5.4,1.6-11.1,1.9-16.9 l0.4,0l0,0c0.6,0,1.1,0.3,1.3,0.8l8.4,23l0,0c0.8,2.3,3.4,3.5,5.7,2.6C119.8,69.9,121,67.4,120.2,65.1z M112.7,122.3H66.1 c0.4-25,6.4-47,15.5-60.6c-1.5-8.5-2.4-17.9-2.4-27.8h2.5L89,47.7c0,0.7,8.1-13.8,8.1-13.8h0h2.5c-0.1,9.9-0.9,19.3-2.4,27.8 C106.3,75.3,112.4,97.3,112.7,122.3z M107.4,34.5c-2.3-2-5.3-3.2-8.4-3.2H79.8c-3.1,0-6.1,1.1-8.4,3.2c-1.5-3.5-1.3-7.6,0.7-11.2 l6.3-10.9c2.2-3.8,6.3-6.3,10.9-6.3c4.7,0,8.8,2.5,10.9,6.3l6.3,10.9C108.7,26.9,108.8,31,107.4,34.5z"/> </g>
</svg>